<svg width="766" height="166" viewBox="0 0 766 166" fill="none" xmlns="http://www.w3.org/2000/svg">
<path d="M41.582 3.89453V130.359H66.582V162H0.46875V3.89453H41.582Z" fill="#EA5E4B"/>
<path d="M76.6406 3.89453H145.195V35.5352H117.754V65.5156H143.438V95.5938H117.754V130.359H147.93V162H76.6406V3.89453Z" fill="#EA5E4B"/>
<path d="M255.84 72.8398H214.727V45.3008C214.727 37.293 214.271 32.3125 213.359 30.3594C212.513 28.3411 210.592 27.332 207.598 27.332C204.212 27.332 202.064 28.5365 201.152 30.9453C200.241 33.3542 199.785 38.5625 199.785 46.5703V120.008C199.785 127.69 200.241 132.703 201.152 135.047C202.064 137.391 204.115 138.562 207.305 138.562C210.365 138.562 212.35 137.391 213.262 135.047C214.238 132.703 214.727 127.202 214.727 118.543V98.7188H255.84V104.871C255.84 121.212 254.668 132.801 252.324 139.637C250.046 146.473 244.935 152.462 236.992 157.605C229.115 162.749 219.382 165.32 207.793 165.32C195.749 165.32 185.82 163.139 178.008 158.777C170.195 154.415 165.02 148.393 162.48 140.711C159.941 132.964 158.672 121.342 158.672 105.848V59.6562C158.672 48.263 159.062 39.7344 159.844 34.0703C160.625 28.3411 162.936 22.8398 166.777 17.5664C170.684 12.293 176.055 8.15885 182.891 5.16406C189.792 2.10417 197.702 0.574219 206.621 0.574219C218.73 0.574219 228.724 2.91797 236.602 7.60547C244.479 12.293 249.655 18.1523 252.129 25.1836C254.603 32.1497 255.84 43.0221 255.84 57.8008V72.8398Z" fill="#EA5E4B"/>
<path d="M366.582 72.8398H325.469V45.3008C325.469 37.293 325.013 32.3125 324.102 30.3594C323.255 28.3411 321.335 27.332 318.34 27.332C314.954 27.332 312.806 28.5365 311.895 30.9453C310.983 33.3542 310.527 38.5625 310.527 46.5703V120.008C310.527 127.69 310.983 132.703 311.895 135.047C312.806 137.391 314.857 138.562 318.047 138.562C321.107 138.562 323.092 137.391 324.004 135.047C324.98 132.703 325.469 127.202 325.469 118.543V98.7188H366.582V104.871C366.582 121.212 365.41 132.801 363.066 139.637C360.788 146.473 355.677 152.462 347.734 157.605C339.857 162.749 330.124 165.32 318.535 165.32C306.491 165.32 296.562 163.139 288.75 158.777C280.938 154.415 275.762 148.393 273.223 140.711C270.684 132.964 269.414 121.342 269.414 105.848V59.6562C269.414 48.263 269.805 39.7344 270.586 34.0703C271.367 28.3411 273.678 22.8398 277.52 17.5664C281.426 12.293 286.797 8.15885 293.633 5.16406C300.534 2.10417 308.444 0.574219 317.363 0.574219C329.473 0.574219 339.466 2.91797 347.344 7.60547C355.221 12.293 360.397 18.1523 362.871 25.1836C365.345 32.1497 366.582 43.0221 366.582 57.8008V72.8398Z" fill="#EA5E4B"/>
<path d="M381.328 3.89453H449.883V35.5352H422.441V65.5156H448.125V95.5938H422.441V130.359H452.617V162H381.328V3.89453Z" fill="#EA5E4B"/>
<path d="M551.641 51.7461H513.457V40.0273C513.457 34.5586 512.969 31.0755 511.992 29.5781C511.016 28.0807 509.388 27.332 507.109 27.332C504.635 27.332 502.747 28.3411 501.445 30.3594C500.208 32.3776 499.59 35.4375 499.59 39.5391C499.59 44.8125 500.306 48.7839 501.738 51.4531C503.105 54.1224 506.979 57.3451 513.359 61.1211C531.654 71.9935 543.177 80.9128 547.93 87.8789C552.682 94.8451 555.059 106.076 555.059 121.57C555.059 132.833 553.724 141.134 551.055 146.473C548.451 151.811 543.372 156.303 535.82 159.949C528.268 163.53 519.479 165.32 509.453 165.32C498.451 165.32 489.043 163.237 481.23 159.07C473.483 154.904 468.405 149.598 465.996 143.152C463.587 136.707 462.383 127.56 462.383 115.711V105.359H500.566V124.598C500.566 130.522 501.087 134.331 502.129 136.023C503.236 137.716 505.156 138.562 507.891 138.562C510.625 138.562 512.643 137.488 513.945 135.34C515.312 133.191 515.996 130.001 515.996 125.77C515.996 116.46 514.727 110.372 512.188 107.508C509.583 104.643 503.171 99.8581 492.949 93.1523C482.728 86.3815 475.957 81.4661 472.637 78.4062C469.316 75.3464 466.549 71.1146 464.336 65.7109C462.188 60.3073 461.113 53.4062 461.113 45.0078C461.113 32.8984 462.643 24.0443 465.703 18.4453C468.828 12.8464 473.841 8.48438 480.742 5.35938C487.643 2.16927 495.977 0.574219 505.742 0.574219C516.419 0.574219 525.501 2.29948 532.988 5.75C540.54 9.20052 545.521 13.5625 547.93 18.8359C550.404 24.0443 551.641 32.931 551.641 45.4961V51.7461Z" fill="#EA5E4B"/>
<path d="M655.156 51.7461H616.973V40.0273C616.973 34.5586 616.484 31.0755 615.508 29.5781C614.531 28.0807 612.904 27.332 610.625 27.332C608.151 27.332 606.263 28.3411 604.961 30.3594C603.724 32.3776 603.105 35.4375 603.105 39.5391C603.105 44.8125 603.822 48.7839 605.254 51.4531C606.621 54.1224 610.495 57.3451 616.875 61.1211C635.169 71.9935 646.693 80.9128 651.445 87.8789C656.198 94.8451 658.574 106.076 658.574 121.57C658.574 132.833 657.24 141.134 654.57 146.473C651.966 151.811 646.888 156.303 639.336 159.949C631.784 163.53 622.995 165.32 612.969 165.32C601.966 165.32 592.559 163.237 584.746 159.07C576.999 154.904 571.921 149.598 569.512 143.152C567.103 136.707 565.898 127.56 565.898 115.711V105.359H604.082V124.598C604.082 130.522 604.603 134.331 605.645 136.023C606.751 137.716 608.672 138.562 611.406 138.562C614.141 138.562 616.159 137.488 617.461 135.34C618.828 133.191 619.512 130.001 619.512 125.77C619.512 116.46 618.242 110.372 615.703 107.508C613.099 104.643 606.686 99.8581 596.465 93.1523C586.243 86.3815 579.473 81.4661 576.152 78.4062C572.832 75.3464 570.065 71.1146 567.852 65.7109C565.703 60.3073 564.629 53.4062 564.629 45.0078C564.629 32.8984 566.159 24.0443 569.219 18.4453C572.344 12.8464 577.357 8.48438 584.258 5.35938C591.159 2.16927 599.492 0.574219 609.258 0.574219C619.935 0.574219 629.017 2.29948 636.504 5.75C644.056 9.20052 649.036 13.5625 651.445 18.8359C653.919 24.0443 655.156 32.931 655.156 45.4961V51.7461Z" fill="#EA5E4B"/>
<path d="M765.508 96.4727C765.508 112.358 765.117 123.621 764.336 130.262C763.62 136.837 761.276 142.859 757.305 148.328C753.398 153.797 748.092 157.996 741.387 160.926C734.681 163.855 726.868 165.32 717.949 165.32C709.486 165.32 701.868 163.953 695.098 161.219C688.392 158.419 682.988 154.253 678.887 148.719C674.785 143.185 672.344 137.163 671.562 130.652C670.781 124.142 670.391 112.749 670.391 96.4727V69.4219C670.391 53.5365 670.749 42.306 671.465 35.7305C672.246 29.0898 674.59 23.0352 678.496 17.5664C682.467 12.0977 687.806 7.89844 694.512 4.96875C701.217 2.03906 709.03 0.574219 717.949 0.574219C726.413 0.574219 733.997 1.97396 740.703 4.77344C747.474 7.50781 752.91 11.6419 757.012 17.1758C761.113 22.7096 763.555 28.7318 764.336 35.2422C765.117 41.7526 765.508 53.1458 765.508 69.4219V96.4727ZM724.395 44.5195C724.395 37.1628 723.971 32.4753 723.125 30.457C722.344 28.3737 720.684 27.332 718.145 27.332C715.996 27.332 714.336 28.1784 713.164 29.8711C712.057 31.4987 711.504 36.3815 711.504 44.5195V118.348C711.504 127.527 711.862 133.191 712.578 135.34C713.359 137.488 715.117 138.562 717.852 138.562C720.651 138.562 722.441 137.326 723.223 134.852C724.004 132.378 724.395 126.486 724.395 117.176V44.5195Z" fill="#EA5E4B"/>
</svg>
